# xmcd
#
# Track frame offsets:
#	150
#	15092
#	33195
#	45937
#	56396
#	72705
#	86163
#	95839
#	107844
#	120746
#	132368
#	156975
#
# Disc length: 2282 seconds
#
# Revision: 0
# Processed by: cddbd v1.4PL0 Copyright (c) Steve Scherf et al.
# Submitted via: dBpowerAMP V4.0
#
DISCID=9b08e80c
DTITLE=Gary Waldrep Band - Both Sides Of The RIver
DYEAR=1900
DGENRE=Bluegrass
TTITLE0=Both Sides Of The River
TTITLE1=Precious Jewel
TTITLE2=Jesus Take Ahold
TTITLE3=I'll Meet You In Church
TTITLE4=Lily In The Valley
TTITLE5=Harbor Of Love
TTITLE6=Surely Worth It All
TTITLE7=The Gospel Plow
TTITLE8=Mother's Bible
TTITLE9=There's Only One
TTITLE10=Amazing Grace
TTITLE11=Under The Double Eagle
EXTD=Tony Partigainoni\nArtist website www.garlywaldrepband.net\nArtist POC (256) 561-3908\nProducer Gary Waldrep\nMusician: \nGary Wladrep - banjo, guitar, fiddle, piano and vocal\nDonna Townsel - bass, guitar and vocals\nBill Everett - mandolin, guitar and 
EXTD=vocal\nMark Squires - fiddle\nRecorded at Deep South Studio and Cannon Creek Studio\nMixed by Bill Everett and Gary Waldrep\nEngineer:  Kenny Townsel and Bill Everett\nAll songs arranged by the band.\nBookings contact:\nGary Waldrep\n1958 County Rd 479\n
EXTD=Albertville, AL 35951\nsee phone# above
EXTT0=
EXTT1=
EXTT2=
EXTT3=
EXTT4=
EXTT5=
EXTT6=
EXTT7=
EXTT8=
EXTT9=
EXTT10=
EXTT11=
PLAYORDER=
